<?xml version="1.0" encoding="utf-8"?>
<!-- Generator: Adobe Illustrator 21.1.0, SVG Export Plug-In . SVG Version: 6.00 Build 0)  -->
<svg version="1.1" id="Layer_1" xmlns="http://www.w3.org/2000/svg" xmlns:xlink="http://www.w3.org/1999/xlink" x="0px" y="0px"
	 viewBox="0 0 350.8 122.6" style="enable-background:new 0 0 350.8 122.6;" xml:space="preserve">
<path style="fill:#ffffff" d="M174.4,118.5c-22.9,0-41.6-18.7-41.6-41.6s18.7-41.6,41.6-41.6S216,53.9,216,76.9S197.3,118.5,174.4,118.5z M174.4,37.3
	c-21.8,0-39.6,17.8-39.6,39.6s17.8,39.6,39.6,39.6S214,98.7,214,76.9S196.2,37.3,174.4,37.3z"/>
<rect style="fill:#ffffff" y="83.5" width="134.6" height="2"/>
<path style="fill:#ffffff" d="M92.6,122.6c-7.6,0-13.7-6.2-13.7-13.7S85,95.1,92.6,95.1s13.7,6.2,13.7,13.7S100.1,122.6,92.6,122.6z M92.6,97.1
	c-6.5,0-11.7,5.3-11.7,11.7s5.3,11.7,11.7,11.7s11.7-5.3,11.7-11.7S99,97.1,92.6,97.1z"/>
<path style="fill:#ffffff" d="M54.1,122.6c-7.6,0-13.7-6.2-13.7-13.7s6.2-13.7,13.7-13.7s13.7,6.2,13.7,13.7S61.6,122.6,54.1,122.6z M54.1,97.1
	c-6.5,0-11.7,5.3-11.7,11.7s5.3,11.7,11.7,11.7s11.7-5.3,11.7-11.7S60.5,97.1,54.1,97.1z"/>
<rect style="fill:#ffffff" x="216.1" y="83.5" width="134.6" height="2"/>
<rect style="fill:#ffffff" x="172.3" width="2" height="33.9"/>
<rect style="fill:#ffffff" x="156.9" y="62" width="35.1" height="2"/>
<path style="fill:#ffffff" d="M258.2,122.6c-7.6,0-13.7-6.2-13.7-13.7s6.2-13.7,13.7-13.7s13.7,6.2,13.7,13.7S265.8,122.6,258.2,122.6z M258.2,97.1
	c-6.5,0-11.7,5.3-11.7,11.7s5.3,11.7,11.7,11.7s11.7-5.3,11.7-11.7S264.7,97.1,258.2,97.1z"/>
<path style="fill:#ffffff" d="M296.7,122.6c-7.6,0-13.7-6.2-13.7-13.7s6.2-13.7,13.7-13.7s13.7,6.2,13.7,13.7S304.3,122.6,296.7,122.6z M296.7,97.1
	c-6.5,0-11.7,5.3-11.7,11.7s5.3,11.7,11.7,11.7s11.7-5.3,11.7-11.7S303.2,97.1,296.7,97.1z"/>
</svg>
